<svg width="14" height="24" viewBox="0 0 14 24" fill="none" xmlns="http://www.w3.org/2000/svg">
<path d="M13.6586 16.7859C13.2414 19.1156 11.282 20.5969 8.49765 20.925V22.5C8.49765 22.8978 8.33962 23.2794 8.05831 23.5607C7.77701 23.842 7.39548 24 6.99765 24C6.59983 24 6.2183 23.842 5.93699 23.5607C5.65569 23.2794 5.49765 22.8978 5.49765 22.5V20.8594C5.47703 20.8566 5.45828 20.8594 5.43765 20.8547C4.21 20.6784 2.92093 20.2359 1.78422 19.8455L1.26859 19.6692C0.902535 19.5337 0.60372 19.2608 0.435602 18.9086C0.267484 18.5563 0.243307 18.1524 0.368205 17.7825C0.493103 17.4127 0.757237 17.1062 1.10452 16.928C1.45179 16.7498 1.85486 16.7139 2.22812 16.8281L2.75828 17.0091C3.77031 17.3564 4.91453 17.7502 5.87125 17.887C8.07859 18.2128 10.4209 17.8477 10.7041 16.2891C10.9473 14.9508 10.1809 14.4192 6.60109 13.4437L5.89797 13.2506C3.83781 12.675 -0.443753 11.4797 0.33906 7.17188C0.753903 4.87969 2.70484 3.3975 5.49531 3.07078V1.5C5.49531 1.10218 5.65334 0.720644 5.93465 0.43934C6.21595 0.158035 6.59749 0 6.99531 0C7.39313 0 7.77467 0.158035 8.05597 0.43934C8.33727 0.720644 8.49531 1.10218 8.49531 1.5V3.14062C8.51593 3.14344 8.53469 3.14062 8.55531 3.14578C9.34797 3.26437 10.2531 3.49594 11.4016 3.87469C11.5908 3.93448 11.7663 4.03123 11.9179 4.15935C12.0695 4.28746 12.1942 4.44439 12.2847 4.62103C12.3752 4.79768 12.4297 4.99053 12.4452 5.1884C12.4606 5.38628 12.4366 5.58526 12.3746 5.77379C12.3125 5.96233 12.2137 6.13669 12.0838 6.28675C11.9539 6.43681 11.7955 6.55961 11.6178 6.64801C11.4401 6.73641 11.2466 6.78867 11.0486 6.80175C10.8505 6.81483 10.6518 6.78848 10.4641 6.72422C9.49281 6.405 8.72406 6.20484 8.11281 6.11484C5.91953 5.78437 3.57343 6.15 3.29218 7.71094C3.08547 8.85 3.51484 9.46875 6.7089 10.3594L7.39281 10.5469C10.1992 11.3156 14.4484 12.4734 13.6586 16.7859Z" fill="#4688F2"/>
</svg>
