<svg width="24" height="24" viewBox="0 0 24 24" fill="none" xmlns="http://www.w3.org/2000/svg">
<path d="M23.3335 0.000120001C23.2631 -0.0023559 23.1929 0.00896796 23.1269 0.0334533L16.0002 2.80012L8.00021 0.000120001L0.486878 2.53345C0.342677 2.57378 0.216249 2.66148 0.127965 2.78241C0.0396801 2.90335 -0.00532111 3.05049 0.000211324 3.20012V23.3335C0.000211324 23.5103 0.0704492 23.6798 0.195473 23.8049C0.320498 23.9299 0.490067 24.0001 0.666878 24.0001C0.735124 24.0134 0.805298 24.0134 0.873545 24.0001L8.00021 21.2001L16.0002 24.0001L23.5202 21.4735C23.6632 21.4319 23.7881 21.3437 23.8751 21.2228C23.9621 21.102 24.0061 20.9555 24.0002 20.8068V0.666787C24.0002 0.489976 23.93 0.320406 23.805 0.195382C23.6799 0.0703579 23.5104 0.000120001 23.3335 0.000120001ZM16.0002 21.3335L8.00021 18.5268V2.66679L16.0002 5.47345V21.3335Z" fill="#4688F2"/>
</svg>
