<svg width="22" height="24" viewBox="0 0 22 24" fill="none" xmlns="http://www.w3.org/2000/svg">
<path d="M0.199951 4.8C0.199951 4.16348 0.452808 3.55303 0.902895 3.10294C1.35298 2.65286 1.96343 2.4 2.59995 2.4H19.4C20.0365 2.4 20.6469 2.65286 21.097 3.10294C21.5471 3.55303 21.8 4.16348 21.8 4.8V21.6C21.8 22.2365 21.5471 22.847 21.097 23.2971C20.6469 23.7471 20.0365 24 19.4 24H2.59995C1.96343 24 1.35298 23.7471 0.902895 23.2971C0.452808 22.847 0.199951 22.2365 0.199951 21.6V4.8ZM2.59995 7.2V21.6H19.4V7.2H2.59995ZM4.99995 0H7.39995V2.4H4.99995V0ZM14.6 0H17V2.4H14.6V0ZM4.99995 10.8H7.39995V13.2H4.99995V10.8ZM4.99995 15.6H7.39995V18H4.99995V15.6ZM9.79995 10.8H12.2V13.2H9.79995V10.8ZM9.79995 15.6H12.2V18H9.79995V15.6ZM14.6 10.8H17V13.2H14.6V10.8ZM14.6 15.6H17V18H14.6V15.6Z" fill="#4688F2"/>
</svg>
