<svg width="24" height="24" viewBox="0 0 24 24" fill="none" xmlns="http://www.w3.org/2000/svg">
<path d="M23.9975 11.9992C23.9975 5.37225 18.6253 0 11.9983 0C5.37127 0 -0.000976562 5.37225 -0.000976562 11.9992C-0.000976562 17.988 4.38727 22.9522 10.1233 23.8522V15.4672H7.07677V11.9985H10.1233V9.35475C10.1233 6.34725 11.915 4.686 14.6555 4.686C15.968 4.686 17.3413 4.92075 17.3413 4.92075V7.8735H15.8285C14.3383 7.8735 13.8733 8.79825 13.8733 9.747V11.9977H17.201L16.6693 15.4665H13.8733V23.8515C19.61 22.9515 23.9975 17.9872 23.9975 11.9985V11.9992Z" fill="#4688F2"/>
</svg>
