<svg width="24" height="24" viewBox="0 0 24 24" fill="none" xmlns="http://www.w3.org/2000/svg">
<path d="M15.8533 0.181676C18.6785 0.186926 18.7888 0.210176 19.3408 0.289676C20.4808 0.453926 21.437 0.908426 22.2185 1.65543C22.6565 2.07693 22.9588 2.48943 23.2303 3.04143C23.5618 3.71568 23.7245 4.35393 23.7988 5.30343C23.8145 5.50668 23.822 8.74743 23.822 11.9904C23.822 15.2334 23.8153 18.4794 23.7995 18.6834C23.726 19.6172 23.5633 20.2614 23.2423 20.9229C22.604 22.2392 21.431 23.1992 20.015 23.5644C19.5013 23.6972 19.037 23.7594 18.2368 23.7969C17.951 23.8112 14.966 23.8149 11.9803 23.8149C8.99455 23.8149 6.01105 23.8059 5.71855 23.7932C5.0278 23.7602 4.4893 23.6912 4.00255 23.5659C2.59555 23.2022 1.4008 22.2279 0.775296 20.9297C0.448296 20.2517 0.293796 19.6314 0.212046 18.6459C0.188796 18.3662 0.182796 16.9239 0.182796 11.9934C0.182796 10.3322 0.181296 9.09393 0.182796 8.15268C0.187296 5.32968 0.210546 5.21643 0.290796 4.66368C0.455046 3.52518 0.909546 2.56743 1.65955 1.78893C2.0713 1.36218 2.4883 1.05768 3.0178 0.794426C3.70405 0.452426 4.3348 0.293426 5.3473 0.208676C5.6278 0.185426 7.0708 0.180176 12.0058 0.180176H15.8533V0.181676ZM11.999 3.27318C9.6298 3.27318 9.3328 3.28368 8.40205 3.32568C7.4728 3.36843 6.83905 3.51543 6.28405 3.73143C5.7103 3.95418 5.2228 4.25268 4.7383 4.73793C4.2538 5.22318 3.95455 5.70993 3.73105 6.28368C3.51505 6.83868 3.3673 7.47318 3.3253 8.40168C3.2833 9.33243 3.2728 9.63018 3.2728 12.0002C3.2728 14.3702 3.2833 14.6672 3.3253 15.5979C3.36805 16.5272 3.51505 17.1609 3.73105 17.7159C3.9538 18.2897 4.2523 18.7772 4.73755 19.2617C5.2228 19.7462 5.70955 20.0462 6.2833 20.2689C6.8383 20.4849 7.4728 20.6319 8.40205 20.6747C9.3328 20.7167 9.63055 20.7272 12.0005 20.7272C14.3705 20.7272 14.6675 20.7167 15.5983 20.6747C16.5275 20.6319 17.162 20.4849 17.7178 20.2689C18.2915 20.0462 18.7775 19.7469 19.2628 19.2617C19.748 18.7764 20.0465 18.2897 20.27 17.7159C20.4845 17.1609 20.6315 16.5264 20.6758 15.5979C20.7178 14.6672 20.7283 14.3702 20.7283 12.0002C20.7283 9.63018 20.717 9.33243 20.6758 8.40168C20.6323 7.47243 20.4845 6.83868 20.27 6.28368C20.0465 5.70993 19.748 5.22243 19.2628 4.73793C18.7775 4.25343 18.2915 3.95418 17.717 3.73143C17.1605 3.51543 16.526 3.36843 15.5968 3.32568C14.666 3.28368 14.3698 3.27318 11.9998 3.27318H11.999ZM11.2175 4.84593C11.45 4.84593 11.7088 4.84593 12.0005 4.84593C14.3308 4.84593 14.6068 4.85418 15.527 4.89618C16.3783 4.93518 16.8395 5.07693 17.147 5.19693C17.5543 5.35518 17.8445 5.54418 18.1498 5.84943C18.455 6.15468 18.644 6.44568 18.803 6.85293C18.9223 7.16043 19.0648 7.62168 19.1038 8.47293C19.1458 9.39318 19.1548 9.66918 19.1548 11.9987C19.1548 14.3282 19.1458 14.6042 19.1038 15.5244C19.0648 16.3757 18.923 16.8369 18.803 17.1444C18.6448 17.5517 18.4558 17.8419 18.1498 18.1472C17.8438 18.4524 17.5543 18.6414 17.147 18.7997C16.8395 18.9197 16.3775 19.0614 15.527 19.1004C14.6068 19.1424 14.3308 19.1514 12.0005 19.1514C9.6703 19.1514 9.3943 19.1424 8.47405 19.1004C7.6228 19.0614 7.16155 18.9189 6.8533 18.7997C6.44605 18.6414 6.15505 18.4524 5.8498 18.1472C5.54455 17.8419 5.35555 17.5517 5.19655 17.1444C5.0773 16.8369 4.9348 16.3757 4.8958 15.5244C4.8538 14.6042 4.84555 14.3282 4.84555 11.9972C4.84555 9.66618 4.8538 9.39168 4.8958 8.47143C4.9348 7.62018 5.07655 7.15893 5.19655 6.85143C5.3548 6.44418 5.5438 6.15318 5.8498 5.84793C6.1558 5.54268 6.44605 5.35368 6.8533 5.19468C7.1608 5.07468 7.6228 4.93293 8.47405 4.89393C9.2788 4.85793 9.5908 4.84668 11.2175 4.84518V4.84743V4.84593ZM12.0005 7.51818C9.52555 7.51818 7.51855 9.52518 7.51855 12.0002C7.51855 14.4752 9.52555 16.4814 12.0005 16.4814C14.4755 16.4814 16.4818 14.4759 16.4818 12.0002C16.4818 9.52443 14.4755 7.51818 12.0005 7.51818ZM12.0005 9.09093C13.607 9.09093 14.9098 10.3929 14.9098 12.0002C14.9098 13.6074 13.607 14.9094 12.0005 14.9094C10.394 14.9094 9.0913 13.6067 9.0913 12.0002C9.0913 10.3937 10.3933 9.09093 12.0005 9.09093ZM16.6588 6.29493C16.0805 6.29493 15.6118 6.76368 15.6118 7.34193C15.6118 7.92018 16.0805 8.38893 16.6588 8.38893C17.237 8.38893 17.7058 7.92018 17.7058 7.34193C17.7058 6.76368 17.237 6.29493 16.6588 6.29493V6.29568V6.29493Z" fill="white"/>
</svg>
