<svg width="24" height="24" viewBox="0 0 24 24" fill="none" xmlns="http://www.w3.org/2000/svg">
<path d="M3.703 20.094H7.312V9.25H3.703V20.094ZM7.547 5.906C7.531 4.844 6.766 4.031 5.531 4.031C4.296 4.031 3.484 4.843 3.484 5.906C3.484 6.937 4.265 7.781 5.484 7.781H5.5C6.766 7.781 7.547 6.937 7.547 5.906ZM16.688 20.094H20.297V13.875C20.297 10.547 18.516 9 16.141 9C14.204 9 13.344 10.078 12.875 10.828H12.906V9.25H9.297C9.297 9.25 9.344 10.266 9.297 20.094H12.906V14.032C12.906 13.719 12.922 13.391 13.015 13.157C13.281 12.516 13.874 11.844 14.874 11.844C16.171 11.844 16.687 12.828 16.687 14.297V20.094H16.688ZM24 4.5V19.5C24 21.984 21.984 24 19.5 24H4.5C2.016 24 0 21.984 0 19.5V4.5C0 2.016 2.016 0 4.5 0H19.5C21.984 0 24 2.016 24 4.5Z" fill="white"/>
</svg>
