<svg width="24" height="18" viewBox="0 0 24 18" fill="none" xmlns="http://www.w3.org/2000/svg">
<path d="M23.3651 2.46431C22.73 3.32145 21.9371 4.08516 21.0288 4.70059C21.0436 4.88831 21.0436 5.07602 21.0436 5.26288C21.0436 10.9817 16.3562 17.5706 7.7891 17.5706C5.15002 17.5706 2.69741 16.8609 0.635254 15.6283C1.01002 15.6686 1.37095 15.6823 1.76048 15.6823C3.93802 15.6823 5.94295 14.9992 7.54448 13.8343C5.49618 13.794 3.78018 12.5486 3.18848 10.8343C3.47741 10.8746 3.76541 10.9012 4.06818 10.9012C4.48633 10.9012 4.90448 10.8472 5.29402 10.7537C3.15987 10.3517 1.55833 8.61088 1.55833 6.50831V6.45431C2.17864 6.77573 2.89956 6.97631 3.66387 7.00373C2.40941 6.22716 1.58695 4.90116 1.58695 3.40116C1.58695 2.59716 1.81772 1.86088 2.22202 1.21802C4.51495 3.84259 7.96264 5.55773 11.8276 5.74459C11.7556 5.42316 11.7122 5.08802 11.7122 4.75373C11.7122 2.37002 13.7891 0.427734 16.3709 0.427734C17.7122 0.427734 18.9242 0.949734 19.7743 1.79402C20.8276 1.60631 21.8365 1.24459 22.7309 0.749163C22.3848 1.75373 21.6491 2.59716 20.6826 3.13288C21.6205 3.03945 22.5288 2.79773 23.3651 2.46345V2.46431Z" fill="white"/>
</svg>
