<svg width="24" height="24" viewBox="0 0 24 24" fill="none" xmlns="http://www.w3.org/2000/svg">
<path d="M9.52213 15.5449L16.0038 12.1969L9.52213 8.80857V15.5449ZM12.0001 4C17.0496 4 20.3976 4.24086 20.3976 4.24086C20.8664 4.29486 21.8976 4.29486 22.8078 5.25914C22.8078 5.25914 23.5441 5.98257 23.7584 7.64286C24.013 9.58514 23.9993 11.5266 23.9993 11.5266V13.348C23.9993 13.348 24.013 15.2903 23.7584 17.2317C23.5441 18.8791 22.8078 19.6154 22.8078 19.6154C21.8976 20.566 20.8656 20.566 20.3976 20.62C20.3976 20.62 17.0496 20.8746 12.0001 20.8746C5.75927 20.8206 3.84356 20.6337 3.84356 20.6337C3.30784 20.5403 2.1027 20.5669 1.19156 19.6154C1.19156 19.6154 0.455273 18.8791 0.240987 17.2317C-0.0135845 15.2894 0.000129742 13.348 0.000129742 13.348V11.5266C0.000129742 11.5266 -0.0135845 9.58429 0.240987 7.64286C0.455273 5.98257 1.19156 5.25914 1.19156 5.25914C2.10184 4.29486 3.13384 4.29486 3.60184 4.24086C3.60184 4.24086 6.94984 4 11.9993 4H12.0001Z" fill="white"/>
</svg>
