<svg width="70" height="70" viewBox="0 0 70 70" fill="none" xmlns="http://www.w3.org/2000/svg">
<path d="M57.1952 64.0243V39.917C58.9881 39.3329 60.707 38.5422 62.3172 37.5609V64.0926C62.3172 65.6774 61.6876 67.1974 60.567 68.318C59.4463 69.4387 57.9264 70.0682 56.3416 70.0682H44.3903C43.5998 70.0683 42.8172 69.9115 42.0877 69.6069C41.3582 69.3024 40.6964 68.8561 40.1406 68.2939C39.5848 67.7318 39.1461 67.065 38.8498 66.3321C38.5536 65.5992 38.4057 64.8148 38.4147 64.0243V45.2438C38.4147 45.0174 38.3248 44.8003 38.1647 44.6402C38.0046 44.4801 37.7875 44.3902 37.5611 44.3902H25.6099C25.3835 44.3902 25.1663 44.4801 25.0062 44.6402C24.8461 44.8003 24.7562 45.0174 24.7562 45.2438V64.0243C24.7562 65.6091 24.1266 67.1291 23.006 68.2497C21.8853 69.3704 20.3654 69.9999 18.7806 69.9999H6.82937C5.24454 69.9999 3.72462 69.3704 2.60398 68.2497C1.48333 67.1291 0.85376 65.6091 0.85376 64.0243L0.85376 30.5268C0.853991 29.4079 1.09857 28.3027 1.57041 27.2882C2.04225 26.2738 2.72996 25.3746 3.58547 24.6536L26.6342 5.22431C27.6391 4.38811 28.8384 3.81841 30.1215 3.56777C31.4045 3.31713 32.73 3.39361 33.9757 3.79017C32.6312 5.30081 31.4838 6.97598 30.5611 8.77553C30.3276 8.84641 30.116 8.97569 29.9464 9.15114L6.89766 28.5804C6.61009 28.8169 6.37832 29.114 6.21894 29.4504C6.05956 29.7869 5.9765 30.1544 5.97571 30.5268V64.0243C5.97571 64.2507 6.06565 64.4679 6.22574 64.6279C6.38583 64.788 6.60296 64.878 6.82937 64.878H18.7806C19.007 64.878 19.2241 64.788 19.3842 64.6279C19.5443 64.4679 19.6342 64.2507 19.6342 64.0243V45.2438C19.6342 43.659 20.2638 42.1391 21.3845 41.0184C22.5051 39.8978 24.025 39.2682 25.6099 39.2682H37.5611C39.1459 39.2682 40.6658 39.8978 41.7865 41.0184C42.9071 42.1391 43.5367 43.659 43.5367 45.2438V64.0243C43.5367 64.2507 43.6266 64.4679 43.7867 64.6279C43.9468 64.788 44.1639 64.878 44.3903 64.878H56.3416C56.568 64.878 56.7851 64.788 56.9452 64.6279C57.1053 64.4679 57.1952 64.2507 57.1952 64.0243Z" fill="#4688F2"/>
<path d="M50.3658 18.2684C51.7236 18.2684 52.8243 17.1677 52.8243 15.8099C52.8243 14.452 51.7236 13.3513 50.3658 13.3513C49.008 13.3513 47.9072 14.452 47.9072 15.8099C47.9072 17.1677 49.008 18.2684 50.3658 18.2684Z" fill="#4688F2"/>
<path d="M50.3659 0C46.6515 0 43.0205 1.10146 39.9321 3.16508C36.8436 5.22871 34.4365 8.16182 33.015 11.5935C31.5936 15.0252 31.2217 18.8013 31.9463 22.4444C32.671 26.0874 34.4596 29.4338 37.0861 32.0603C39.7126 34.6868 43.059 36.4755 46.7021 37.2001C50.3451 37.9248 54.1212 37.5528 57.5529 36.1314C60.9846 34.7099 63.9177 32.3028 65.9813 29.2144C68.045 26.1259 69.1464 22.4949 69.1464 18.7805C69.1464 16.3142 68.6607 13.8721 67.7169 11.5935C66.773 9.31495 65.3897 7.24461 63.6458 5.50068C61.9018 3.75675 59.8315 2.37339 57.5529 1.42958C55.2744 0.485772 52.8322 0 50.3659 0V0ZM50.3659 28.6488C50.3659 28.6488 43.5367 21 43.5367 15.8098C43.5367 13.9985 44.2562 12.2615 45.5369 10.9807C46.8177 9.7 48.5547 8.98049 50.3659 8.98049C52.1772 8.98049 53.9142 9.7 55.195 10.9807C56.4757 12.2615 57.1952 13.9985 57.1952 15.8098C57.2635 21 50.3659 28.6488 50.3659 28.6488Z" fill="#4688F2"/>
</svg>
