<svg width="70" height="70" viewBox="0 0 70 70" fill="none" xmlns="http://www.w3.org/2000/svg">
<rect width="70" height="70" fill="#1E1E1E"/>
<g clip-path="url(#clip0_0_1)">
<rect width="1920" height="5450" transform="translate(-780 -3671)" fill="white"/>
<g clip-path="url(#clip1_0_1)">
<path d="M34.9956 70C34.6828 69.9998 34.3737 69.9329 34.0889 69.8037C22.8656 64.7135 15.1007 58.4236 9.65452 50.0083C3.15812 39.9627 4.16049e-08 26.8059 4.16049e-08 9.76729C-6.68677e-05 9.42343 0.08057 9.08436 0.235424 8.77735C0.390278 8.47034 0.615026 8.20396 0.89159 7.99964C1.16815 7.79531 1.48881 7.65875 1.82777 7.60093C2.16673 7.54312 2.51453 7.56567 2.84318 7.66676C5.5267 8.49584 8.74634 9.33663 12.2912 9.33663C20.081 9.33663 27.6042 6.23711 33.4751 0.610804C33.8842 0.218679 34.429 -0.000244141 34.9956 -0.000244141C35.5623 -0.000244141 36.107 0.218679 36.5161 0.610804C42.3753 6.23711 49.9044 9.33517 57.7001 9.33517C61.2332 9.33517 64.4645 8.49144 67.1583 7.66529C67.4872 7.56361 67.8355 7.54065 68.1749 7.59828C68.5144 7.65591 68.8356 7.79251 69.1125 7.99706C69.3895 8.20161 69.6145 8.46839 69.7694 8.77588C69.9243 9.08338 70.0048 9.42297 70.0044 9.76729C70.0044 26.8059 66.8419 39.9657 60.3367 50.0098C54.895 58.4236 47.13 64.7135 35.9009 69.8037C35.6165 69.9327 35.3079 69.9996 34.9956 70ZM4.42663 12.6764C5.19566 46.443 19.4233 58.1365 34.9956 65.3844C50.5767 58.1365 64.8043 46.4445 65.5734 12.6779C63.218 13.2638 60.5784 13.731 57.7001 13.731C49.4283 13.731 41.4407 10.7033 34.9956 5.16341C28.5505 10.7033 20.557 13.731 12.2912 13.731C9.42601 13.731 6.74249 13.2564 4.42663 12.6764Z" fill="#4688F2"/>
<path d="M36.0035 16.8525C32.7978 16.854 29.6646 17.806 27 19.5882C24.3354 21.3703 22.2591 23.9026 21.0337 26.8648C19.8083 29.827 19.4888 33.086 20.1156 36.2298C20.7424 39.3736 22.2874 42.2609 24.5551 44.5266C26.8229 46.7923 29.7116 48.3347 32.8559 48.9586C36.0003 49.5826 39.259 49.2601 42.2201 48.0321C45.1812 46.804 47.7116 44.7254 49.4913 42.0592C51.2711 39.393 52.2203 36.2589 52.2188 33.0533C52.2179 30.9248 51.7977 28.8173 50.9823 26.8513C50.1668 24.8852 48.9722 23.099 47.4664 21.5946C45.9607 20.0902 44.1734 18.8971 42.2066 18.0835C40.2397 17.2699 38.1319 16.8516 36.0035 16.8525V16.8525ZM33.982 31.8961H38.0102C39.8852 31.8961 41.4086 33.6831 41.4086 35.8803C41.4086 38.0775 39.8852 39.8646 38.0102 39.8646H37.2339V43.7463C37.2339 44.0571 37.1104 44.3552 36.8907 44.5749C36.6709 44.7947 36.3728 44.9182 36.0621 44.9182C35.7513 44.9182 35.4532 44.7947 35.2334 44.5749C35.0137 44.3552 34.8902 44.0571 34.8902 43.7463V39.8646H31.7555C31.4447 39.8646 31.1467 39.7411 30.9269 39.5214C30.7071 39.3016 30.5837 39.0035 30.5837 38.6928C30.5837 38.382 30.7071 38.0839 30.9269 37.8641C31.1467 37.6444 31.4447 37.5209 31.7555 37.5209H38.0249C38.5229 37.5209 39.0795 36.8471 39.0795 35.8803C39.0795 34.9136 38.5229 34.2398 38.0249 34.2398H33.9967C32.1217 34.2398 30.5983 32.4527 30.5983 30.2555C30.5983 28.0583 32.1217 26.2712 33.9967 26.2712H34.9195V22.3895C34.9195 22.0787 35.043 21.7806 35.2627 21.5609C35.4825 21.3411 35.7806 21.2177 36.0913 21.2177C36.4021 21.2177 36.7002 21.3411 36.92 21.5609C37.1397 21.7806 37.2632 22.0787 37.2632 22.3895V26.2712H40.2514C40.5622 26.2712 40.8602 26.3947 41.08 26.6144C41.2998 26.8342 41.4232 27.1323 41.4232 27.4431C41.4232 27.7539 41.2998 28.0519 41.08 28.2717C40.8602 28.4914 40.5622 28.6149 40.2514 28.6149H33.982C33.484 28.6149 32.9274 29.2887 32.9274 30.2555C32.9274 31.2223 33.484 31.8961 33.982 31.8961V31.8961Z" fill="#4688F2"/>
</g>
</g>
<defs>
<clipPath id="clip0_0_1">
<rect width="1920" height="5450" fill="white" transform="translate(-780 -3671)"/>
</clipPath>
<clipPath id="clip1_0_1">
<rect width="70" height="70" fill="white"/>
</clipPath>
</defs>
</svg>
