<svg width="70" height="70" viewBox="0 0 70 70" fill="none" xmlns="http://www.w3.org/2000/svg">
<g clip-path="url(#clip0_623_2)">
<path d="M65.1961 40.5536H4.80392C3.52984 40.5536 2.30795 40.0474 1.40704 39.1465C0.506126 38.2456 0 37.0237 0 35.7496L0 24.7693C0 23.4952 0.506126 22.2733 1.40704 21.3724C2.30795 20.4715 3.52984 19.9653 4.80392 19.9653H65.1961C66.4702 19.9653 67.6921 20.4715 68.593 21.3724C69.4939 22.2733 70 23.4952 70 24.7693V35.7496C70 37.0237 69.4939 38.2456 68.593 39.1465C67.6921 40.0474 66.4702 40.5536 65.1961 40.5536ZM4.80392 24.083C4.62191 24.083 4.44735 24.1553 4.31865 24.284C4.18995 24.4127 4.11765 24.5872 4.11765 24.7693V35.7496C4.11765 35.9317 4.18995 36.1062 4.31865 36.2349C4.44735 36.3636 4.62191 36.4359 4.80392 36.4359H65.1961C65.3781 36.4359 65.5527 36.3636 65.6814 36.2349C65.8101 36.1062 65.8824 35.9317 65.8824 35.7496V24.7693C65.8824 24.5872 65.8101 24.4127 65.6814 24.284C65.5527 24.1553 65.3781 24.083 65.1961 24.083H4.80392Z" fill="#4688F2"/>
<path d="M59.7059 68.0047H10.2942C9.02008 68.0047 7.79818 67.4985 6.89727 66.5976C5.99636 65.6967 5.49023 64.4748 5.49023 63.2007V38.4949C5.49023 37.9488 5.70715 37.4252 6.09325 37.0391C6.47935 36.6529 7.00302 36.436 7.54906 36.436C8.09509 36.436 8.61876 36.6529 9.00487 37.0391C9.39097 37.4252 9.60788 37.9488 9.60788 38.4949V63.2007C9.60788 63.3828 9.68019 63.5573 9.80889 63.686C9.93759 63.8147 10.1121 63.887 10.2942 63.887H59.7059C59.8879 63.887 60.0625 63.8147 60.1912 63.686C60.3199 63.5573 60.3922 63.3828 60.3922 63.2007V38.4949C60.3922 37.9488 60.6091 37.4252 60.9952 37.0391C61.3813 36.6529 61.905 36.436 62.451 36.436C62.9971 36.436 63.5207 36.6529 63.9068 37.0391C64.2929 37.4252 64.5098 37.9488 64.5098 38.4949V63.2007C64.5098 64.4748 64.0037 65.6967 63.1028 66.5976C62.2019 67.4985 60.98 68.0047 59.7059 68.0047Z" fill="#4688F2"/>
<path d="M35.0002 68.0045C34.4542 68.0045 33.9305 67.7876 33.5444 67.4015C33.1583 67.0154 32.9414 66.4918 32.9414 65.9457V22.0242C32.9414 21.4781 33.1583 20.9545 33.5444 20.5683C33.9305 20.1822 34.4542 19.9653 35.0002 19.9653C35.5463 19.9653 36.0699 20.1822 36.456 20.5683C36.8421 20.9545 37.0591 21.4781 37.0591 22.0242V65.9457C37.0591 66.4918 36.8421 67.0154 36.456 67.4015C36.0699 67.7876 35.5463 68.0045 35.0002 68.0045Z" fill="#4688F2"/>
<path d="M35.0002 24.0694C34.4542 24.0694 33.9305 23.8525 33.5444 23.4664C33.1583 23.0803 32.9414 22.5566 32.9414 22.0106C32.9414 20.7341 33.0684 9.40371 37.4022 5.01841C39.3342 3.08454 41.9554 1.99738 44.689 1.99609C47.4226 1.99481 50.0448 3.0795 51.9787 5.01155C53.9125 6.9436 54.9997 9.56474 55.001 12.2984C55.0023 15.032 53.9176 17.6542 51.9855 19.588C47.6071 23.9424 36.2767 24.0694 35.0002 24.0694ZM44.711 6.12331C43.8981 6.12177 43.0929 6.28072 42.3415 6.59103C41.5902 6.90135 40.9075 7.35693 40.3326 7.93165C38.3218 9.96302 37.3713 15.6625 37.1242 19.8968C41.3551 19.6498 47.0546 18.6993 49.0929 16.6851C49.9637 15.8214 50.5577 14.718 50.7991 13.5154C51.0405 12.3129 50.9185 11.0657 50.4485 9.93282C49.9784 8.79993 49.1818 7.83263 48.16 7.15418C47.1382 6.47573 45.9375 6.11687 44.711 6.12331Z" fill="#4688F2"/>
<path d="M34.9998 24.0693C33.7233 24.0693 22.3929 23.9424 18.0076 19.6086C16.072 17.6765 14.983 15.0546 14.9805 12.3197C14.9779 9.58483 16.0619 6.96091 17.9939 5.02522C19.926 3.08953 22.5478 2.00063 25.2827 1.99805C28.0176 1.99548 30.6416 3.07945 32.5773 5.0115C36.9317 9.40365 37.0586 20.734 37.0586 22.0105C37.0586 22.5566 36.8417 23.0802 36.4556 23.4663C36.0695 23.8524 35.5458 24.0693 34.9998 24.0693ZM20.9072 16.6747C22.9454 18.6889 28.6415 19.6394 32.8758 19.8865C32.6287 15.6522 31.6782 9.95267 29.6606 7.91444C28.4989 6.75366 26.9237 6.1019 25.2814 6.10255C23.6392 6.10319 22.0645 6.75618 20.9037 7.91787C19.7429 9.07956 19.0912 10.6548 19.0918 12.297C19.0925 13.9392 19.7455 15.514 20.9072 16.6747Z" fill="#4688F2"/>
</g>
<defs>
<clipPath id="clip0_623_2">
<rect width="70" height="70" fill="white"/>
</clipPath>
</defs>
</svg>